<svg data-v-423bf9ae="" xmlns="http://www.w3.org/2000/svg" viewBox="0 0 234.24779116446092 60" class="font"><!----><!----><!----><g data-v-423bf9ae="" id="c7e4a859-1e60-4ab0-8b3f-e5f49e7abf35" fill="white" transform="matrix(4.424778624136357,0,0,4.424778624136357,0.6637164954751427,1.2831863131775059)"><path d="M2.04 0L-0.15 0L-0.15 10.50L2.04 10.50L2.04 5.98L4.38 5.98L4.38 10.50L6.56 10.50L6.56 0L4.38 0L4.38 4.52L2.04 4.52L2.04 0ZM14.44 10.50L14.44 2.92L12.25 2.92L12.25 8.31L12.25 8.31Q12.25 9.19 11.08 9.19L11.08 9.19L11.08 9.19Q9.92 9.19 9.92 8.31L9.92 8.31L9.92 2.92L7.73 2.92L7.73 8.75L7.73 8.75Q7.73 10.65 9.99 10.65L9.99 10.65L9.99 10.65Q12.25 10.65 12.25 9.48L12.25 9.48L12.25 10.50L14.44 10.50ZM17.94 5.10L17.94 5.10L17.94 4.96L17.94 4.96Q17.94 4.23 18.96 4.23L18.96 4.23L18.96 4.23Q19.98 4.23 19.98 4.96L19.98 4.96L19.98 5.54L22.17 5.54L22.17 4.67L22.17 4.67Q22.17 2.77 18.96 2.77L18.96 2.77L18.96 2.77Q15.75 2.77 15.75 4.67L15.75 4.67L15.75 5.40L15.75 5.40Q15.75 7.17 18.96 7.50L18.96 7.50L18.96 7.50Q20.13 7.66 20.13 8.31L20.13 8.31L20.13 8.46L20.13 8.46Q20.13 9.19 18.96 9.19L18.96 9.19L18.96 9.19Q17.79 9.19 17.79 8.46L17.79 8.46L17.79 7.88L15.60 7.88L15.60 8.75L15.60 8.75Q15.60 10.65 18.96 10.65L18.96 10.65L18.96 10.65Q22.31 10.65 22.31 8.75L22.31 8.75L22.31 7.73L22.31 7.73Q22.31 6.11 18.96 5.83L18.96 5.83L18.96 5.83Q17.94 5.68 17.94 5.10ZM23.48 10.50L25.67 10.50L25.67 8.64L26.18 7.68L27.33 10.50L29.75 10.50L27.71 5.69L29.46 2.92L27.78 2.92L25.67 6.73L25.67-0.29L23.48-0.29L23.48 10.50ZM38.38 2.92L34.95 11.76L34.95 11.76Q34.46 13.27 33.29 13.27L33.29 13.27L32.20 13.27L32.20 11.81L32.96 11.81L32.96 11.81Q33.31 11.81 33.51 11.38L33.51 11.38L33.84 10.62L30.86 2.92L33.19 2.92L35.03 7.89L36.75 2.92L38.38 2.92ZM39.08 0L40.83 0L43.90 5.69L43.90 0L45.50 0L45.50 10.50L43.75 10.50L40.69 4.81L40.69 10.50L39.08 10.50L39.08 0ZM49.00 9.04L52.79 1.46L52.79 0L46.67 0L46.67 1.46L50.46 1.46L46.67 9.04L46.67 10.50L52.79 10.50L52.79 9.04L49.00 9.04Z"></path></g><!----><!----></svg>